
<svg width="2020" height="130" viewBox="0 0 2020 130" fill="none" xmlns="http://www.w3.org/2000/svg">
<path fill-rule="evenodd" clip-rule="evenodd" d="M1767 0.055946C1798 -0.932221 1844 11.4199 1860.5 17.3489C1826 6.47901 1779.5 2.52639 1768.5 3.02047C1757.5 3.51456 1736 1.04411 1767 0.055946ZM681.5 2.52624C654.5 1.38354 608.5 11.4198 586.5 16.8547C596.5 12.4079 627.5 4.99663 645 2.52624C664.338 -0.203644 682.333 -0.273379 689.5 0.550072C696 1.29692 708.5 3.66894 681.5 2.52624ZM0 130V80.0976C10.6693 82.0739 42.2104 83.6545 85.021 74.1681C94.191 72.1361 103.141 69.7705 112.177 67.3819C155.875 55.8314 201.6 43.7448 284.07 66.2628C295.568 69.4023 305.765 72.2912 314.95 74.8936L314.952 74.8941C385.272 94.8174 396.343 97.954 478.618 68.239C483.305 66.5465 488.069 64.8136 492.902 63.0561C558.209 39.3049 635.911 11.0453 700.173 16.8545C769.307 23.1041 815.11 44.9414 858.298 65.5323L858.299 65.5327L858.3 65.5331C875.097 73.5417 891.499 81.3617 908.725 88.0027C970.24 111.719 1029.25 98.8726 1115.28 74.1684C1201.3 49.4642 1279.82 53.4169 1338.33 70.7098C1342.13 71.8315 1346.07 73.0214 1350.14 74.2519L1350.14 74.2531C1408.87 91.9937 1495.6 118.195 1585.39 70.7098C1664.41 28.9219 1732.43 2.03217 1834.95 25.7482C1916.97 44.721 1992.49 73.839 2020 86.0264V130H0ZM1126.5 57.8638C1155.5 47.488 1190.5 39.0886 1234 39.0886C1268.8 39.0886 1315.83 51.6054 1335 57.8638C1317.33 53.2523 1272.4 44.0294 1234 44.0294C1195.6 44.0294 1156 48.7885 1126.5 57.8638ZM858.5 53.9111C858.864 54.1133 859.277 54.3441 859.737 54.6008C859.181 54.3161 858.761 54.0828 858.5 53.9111ZM859.737 54.6008C865.573 57.592 886.309 66.2541 893 68.7336C901 71.6981 908.5 75.1567 916 79.1094C899.418 76.7686 869.818 60.2327 859.952 54.721L859.737 54.6008ZM997 92.4497C970.5 93.9319 947.5 89.9792 938.5 86.5206C947 87.3441 969.3 88.8923 990.5 88.497C1017 88.0029 1033 84.5443 1040 82.568C1036 86.0266 1023.5 90.9674 997 92.4497ZM953 71.2041C944.5 71.6981 937 68.2396 932.5 65.7691C936.5 67.7455 947 68.2396 953 67.7455C959 67.2514 961.5 70.71 953 71.2041ZM103 54.8993C88 68.2396 57 67.7455 49 66.7573C50.6457 66.5032 52.9705 66.2178 55.6689 65.8864C61.7157 65.144 69.6387 64.1712 76 62.8046C87.5 60.3342 95 57.8638 103 54.8993ZM209.865 38.7573C210.43 38.7008 210.975 38.6462 211.5 38.5943C221.5 37.6062 243.5 38.1003 257 48.476C244 37.1121 228 33.6537 222 33.6537C214.215 33.6537 206.188 34.8604 198.067 36.081C189.755 37.3304 181.346 38.5943 173 38.5943C183.423 41.4032 199.681 39.7764 209.865 38.7573ZM1418 83.0621C1435 90.4733 1457 92.4497 1468 92.9437C1479 93.4378 1503 91.9556 1518 86.0266C1500.5 87.5088 1479.5 88.9911 1468 88.9911C1448.98 88.9911 1434.23 86.1695 1419.13 83.2791L1418 83.0621ZM1571 66.7573C1561.5 71.6981 1549.5 76.1449 1539 79.1094C1545.5 75.8155 1559.6 68.7336 1564 66.7573C1568.4 64.781 1586.83 56.7109 1595.5 52.923C1590.5 55.8875 1578.6 62.8046 1571 66.7573ZM1524 65.7691C1518.5 68.7336 1511 71.6981 1504 71.6981C1497 71.6981 1498.5 68.2396 1504 67.7455C1505.68 67.595 1507.17 67.6278 1508.74 67.6626C1512.33 67.7418 1516.35 67.8306 1524 65.7691ZM327.5 68.7336C331 71.5334 339.5 77.3307 345.5 78.1212C353 79.1094 358 77.6271 359 77.1331C360 76.639 358 74.1686 353 74.6626C348 75.1567 341.5 73.6745 336.5 71.6981C332.5 70.1171 328.833 69.063 327.5 68.7336ZM1573 89.9792C1567 92.4496 1556 96.4023 1548 96.8964C1561 91.9556 1589.6 80.4928 1600 74.1685C1596.5 78.6153 1579 87.5088 1573 89.9792ZM317.818 86.2259C322.742 91.2426 343.615 98.3531 361.501 102.332C379.387 106.311 408.5 103.814 400.001 101.344C398.73 100.974 395.416 100.873 390.681 100.729C382.375 100.475 369.695 100.088 356.001 97.8852C341.565 95.563 323.178 88.7038 317.818 86.2259ZM1182.49 73.1117C1166.51 73.158 1152.57 77.4077 1144.22 80.3846C1151.65 77.9758 1171.34 76.7251 1182.63 76.8495C1193.91 76.9739 1198.47 73.0655 1182.49 73.1117ZM141 70.7099C148.353 68.0882 164.826 64.2081 178.898 64.1673C192.97 64.1266 188.959 67.5686 179.021 67.4591C169.082 67.3495 147.544 68.5885 141 70.7099ZM284.9 75.1871C293.632 77.0121 302.938 82.8708 306.88 86.3503C303.322 83.4595 290.237 79.5234 284.037 78.3688C277.837 77.2143 276.168 73.3621 284.9 75.1871ZM1611 89.9795C1642 74.1688 1668 63.2987 1703.76 53.6305C1734.88 45.2173 1761.5 45.0182 1780.5 48.4769C1778.56 48.4769 1776.54 48.4542 1774.43 48.4305C1758.55 48.2523 1737.34 48.0141 1704.66 56.8719C1667.63 66.9088 1635.5 79.1097 1611 89.9795ZM747.738 53.6305C783.499 63.2987 809.499 74.1688 840.499 89.9795C815.999 79.1097 783.871 66.9088 746.839 56.8719C714.157 48.0141 692.945 48.2523 677.071 48.4305C674.957 48.4542 672.939 48.4769 671 48.4769C690.001 45.0182 716.62 45.2173 747.738 53.6305ZM411.162 108.575C417.919 108.918 443.775 106.928 454.955 92.4495C448.586 96.0406 442.584 99.0998 433.252 102.479C428.091 104.349 421.59 105.951 416.629 107.174C414.415 107.72 412.507 108.19 411.162 108.575ZM665.014 29.4258C637.989 29.5014 592.5 41.6009 570.774 48.0219C580.558 43.129 611.184 34.3279 628.552 31.0712C647.744 27.4724 665.717 26.5915 672.914 27.091C679.442 27.5441 692.038 29.3502 665.014 29.4258ZM309.016 96.4023C313.11 99.6765 323.063 105.22 330.5 106.778C339.797 108.726 346.313 109.253 347.618 108.88C348.923 108.507 346 106.778 340.356 105.623C338.67 105.278 337.033 104.961 335.428 104.65C326.592 102.941 318.735 101.42 309.016 96.4023ZM1786.81 27.9895C1817.83 27.9899 1863.23 42.711 1879.45 49.3561C1845.47 36.9875 1798 31.1045 1787 30.6894C1778.32 30.362 1768 30.1953 1758 31.0173C1763 29.7012 1772 27.9893 1786.81 27.9895ZM1412.52 102.949C1416.98 104.11 1420.78 105.1 1423.5 105.79C1443 110.731 1482.5 116.66 1512 109.248C1477 112.86 1454 108.26 1430 103.319C1424.45 102.178 1418.05 100.665 1411.22 99.0495C1391.7 94.4366 1368.66 88.9911 1352 88.9911C1358.96 88.9911 1392.39 97.7031 1412.52 102.949ZM1038.5 105.296C1041.22 104.606 1045.02 103.616 1049.48 102.455C1069.61 97.209 1103.04 88.497 1110 88.497C1093.34 88.497 1070.3 93.9425 1050.78 98.5554C1043.95 100.171 1037.55 101.684 1032 102.825C1008 107.766 985 112.365 950 108.754C979.5 116.166 1019 110.237 1038.5 105.296ZM133 72.6863C117.5 77.6271 84.2289 86.0131 70.9906 89.3383C70.2885 89.5147 69.5845 89.6925 68.8782 89.8708C52.2973 94.0585 34.4347 98.5698 9.5 92.3598C33.4544 94.8098 41.0781 92.9336 53.1963 89.9512C56.6815 89.0935 60.5384 88.1442 65.2625 87.1801C71.8168 85.8425 79.2851 84.0404 87.1854 82.134L87.1856 82.134C101.997 78.56 118.327 74.6196 133 72.6863ZM1237.5 69.2275C1269.5 68.2393 1298.5 76.6388 1309 82.0737C1285.64 72.5701 1248.45 73.4294 1239.28 73.641C1238.44 73.6605 1237.84 73.6744 1237.5 73.6744C1233.5 73.6744 1205.5 70.2157 1237.5 69.2275ZM906 96.8964C898 96.4023 887 92.4496 881 89.9792C875 87.5088 857.5 78.6153 854 74.1685C864.4 80.4928 893 91.9556 906 96.8964Z" fill="#f7ee0b"/>
</svg>